<?xml version="1.0" standalone="no"?><!DOCTYPE svg PUBLIC "-//W3C//DTD SVG 1.1//EN" "http://www.w3.org/Graphics/SVG/1.1/DTD/svg11.dtd"><svg t="1730609663572" class="icon" viewBox="0 0 1024 1024" version="1.1" xmlns="http://www.w3.org/2000/svg" p-id="71631" width="24" height="24" xmlns:xlink="http://www.w3.org/1999/xlink"><path d="M224.014 703.99h383.981c17.673 0 32 14.327 32 32s-14.327 31.998-32 31.998H224.014c-17.672 0-31.999-14.326-31.999-31.999s14.327-31.998 31.999-31.998z m0-159.991h191.99c17.673 0 32 14.326 32 31.999s-14.327 31.998-32 31.998h-191.99c-17.672 0-31.999-14.326-31.999-31.998s14.327-32 31.999-32z m-95.995-383.983c-17.673 0-32 14.327-32 32v639.969c0 17.672 14.327 31.999 32 31.999H895.98c17.673 0 32-14.327 32-32V288.012c0-17.673-14.327-32-32-32H575.997A159.989 159.989 0 0 1 480 224.014l-76.796-57.597a32.003 32.003 0 0 0-19.2-6.4H128.02z m0-63.996h255.987a95.992 95.992 0 0 1 57.597 19.2l76.796 57.596a95.992 95.992 0 0 0 57.597 19.2H895.98c53.017 0 95.996 42.978 95.996 95.995v543.974c0 53.016-42.98 95.995-95.996 95.995H128.02c-53.017 0-95.996-42.979-95.996-95.995v-639.97c0-53.016 42.978-95.995 95.996-95.995z" p-id="71632" fill="#409eff"></path></svg>