<svg width="24" height="24" viewBox="0 0 24 24" fill="none" xmlns="http://www.w3.org/2000/svg">
<path d="M3.25 4.34277C3.25 3.47983 3.94956 2.78027 4.8125 2.78027H19.1875C20.0504 2.78027 20.75 3.47983 20.75 4.34277V19.6553C20.75 20.5182 20.0504 21.2178 19.1875 21.2178H4.8125C3.94956 21.2178 3.25 20.5182 3.25 19.6553V4.34277Z" fill="white"/>
<path fill-rule="evenodd" clip-rule="evenodd" d="M19.1875 3.71777H4.8125C4.46732 3.71777 4.1875 3.9976 4.1875 4.34277V19.6553C4.1875 20.0005 4.46732 20.2803 4.8125 20.2803H19.1875C19.5327 20.2803 19.8125 20.0005 19.8125 19.6553V4.34277C19.8125 3.9976 19.5327 3.71777 19.1875 3.71777ZM4.8125 2.78027C3.94956 2.78027 3.25 3.47983 3.25 4.34277V19.6553C3.25 20.5182 3.94956 21.2178 4.8125 21.2178H19.1875C20.0504 21.2178 20.75 20.5182 20.75 19.6553V4.34277C20.75 3.47983 20.0504 2.78027 19.1875 2.78027H4.8125Z" fill="#4B8DFF" fill-opacity="0.64"/>
<path fill-rule="evenodd" clip-rule="evenodd" d="M6.375 6.43652C6.375 6.22942 6.54289 6.06152 6.75 6.06152H17.25C17.4571 6.06152 17.625 6.22942 17.625 6.43652V17.5615C17.625 17.7686 17.4571 17.9365 17.25 17.9365H6.75C6.54289 17.9365 6.375 17.7686 6.375 17.5615V6.43652Z" fill="url(#paint0_linear_3765_206381)"/>
<path fill-rule="evenodd" clip-rule="evenodd" d="M11.9985 6.06152H10.1235V7.91699H11.9985V6.06152ZM13.8735 7.917H11.9985L11.9985 9.77246H10.1235V11.6279H11.9985V13.4834H13.8735V11.6279H11.9985V9.77247H13.8735V7.917Z" fill="white"/>
<defs>
<linearGradient id="paint0_linear_3765_206381" x1="9.41138" y1="8.39233" x2="8.93222" y2="18.118" gradientUnits="userSpaceOnUse">
<stop stop-color="#5A97FF"/>
<stop offset="1" stop-color="#4B8DFF"/>
</linearGradient>
</defs>
</svg>
