<?xml version="1.0" standalone="no"?><!DOCTYPE svg PUBLIC "-//W3C//DTD SVG 1.1//EN" "http://www.w3.org/Graphics/SVG/1.1/DTD/svg11.dtd"><svg t="1733988613512" class="icon" viewBox="0 0 1024 1024" version="1.1" xmlns="http://www.w3.org/2000/svg" p-id="2821" width="24" height="24" xmlns:xlink="http://www.w3.org/1999/xlink"><path d="M752.756364 930.56H139.985455c-23.04 0-41.774545-18.734545-41.774546-41.774545V276.014545c0-23.04 18.734545-41.774545 41.774546-41.774545H239.709091v81.454545h-60.043636v533.41091h533.410909v-74.24h81.454545v113.92c0 23.04-18.734545 41.774545-41.774545 41.774545z" p-id="2822"></path><path d="M884.014545 789.76H271.243636c-23.04 0-41.774545-18.734545-41.774545-41.774545V135.330909c0-23.04 18.734545-41.774545 41.774545-41.774545h142.778182v81.454545h-103.098182v533.410909h533.410909V646.981818h81.454546v101.003637c0 23.04-18.734545 41.774545-41.774546 41.774545z" p-id="2823"></path><path d="M641.163636 631.156364c-10.705455 0-21.410909-4.072727-29.556363-12.218182L417.629091 424.843636l57.6-57.6 166.050909 166.050909 170.472727-170.472727 57.6 57.6-198.516363 198.516364c-8.145455 8.145455-18.850909 12.218182-29.672728 12.218182z" fill="#0017EF" p-id="2824"></path><path d="M602.647273 134.167273h81.454545v439.970909h-81.454545z" fill="#0017EF" p-id="2825"></path></svg>