<?xml version="1.0" standalone="no"?><!DOCTYPE svg PUBLIC "-//W3C//DTD SVG 1.1//EN" "http://www.w3.org/Graphics/SVG/1.1/DTD/svg11.dtd"><svg t="1737521164849" class="icon" viewBox="0 0 1024 1024" version="1.1" xmlns="http://www.w3.org/2000/svg" p-id="17975" width="32" height="32" xmlns:xlink="http://www.w3.org/1999/xlink"><path d="M471.2 252c2.4 0 2.4-3.2 0-3.2s-2.4 3.2 0 3.2" fill="#FFFFFF" p-id="17976"></path><path d="M480.8 188L279.2 405.6H91.2v268.8h188l199.2 217.6s2.4-688 2.4-704" fill="#409EFF" opacity=".315" p-id="17977"></path><path d="M604.8 687c-7.2-17.6-4.8-35.2 12.8-41.6 45.6-20.8 67.2-62.4 72.8-113.6 6.4-60-22.4-115.2-72-138.4-16-10.4-23.2-28.8-12.8-44.8 10.4-16 28.8-23.2 44.8-12.8C724 378.2 768 452.6 758.4 538.2c-7.2 68.8-48.8 133.6-112.8 160.8-12.8 9.6-33.6 4-40.8-12m276 171.2c6.4 4 4 19.2-4.8 35.2-8.8 16-21.6 25.6-28.8 22.4L765.6 868.6c-6.4-4-4-19.2 4.8-35.2 8.8-16 21.6-25.6 28.8-22.4l81.6 47.2m0-681.6c6.4-4 4-19.2-4.8-35.2-8.8-16-21.6-25.6-28.8-22.4l-81.6 47.2c-6.4 4-4 19.2 4.8 35.2 8.8 16 21.6 25.6 28.8 22.4l81.6-47.2m121.6 374.4c7.2 0 13.6-14.4 13.6-32.8s-5.6-32.8-13.6-32.8h-94.4c-7.2 0-13.6 14.4-13.6 32.8s5.6 32.8 13.6 32.8h94.4m-525.6 340L279.2 673.4H91.2V372.6h188l197.6-218.4v736.8m0-824.8L251.2 291.8h-160c-41.6 0-75.2 33.6-75.2 75.2v300.8c0 41.6 33.6 75.2 75.2 75.2h160l226.4 226.4c41.6 0 75.2-33.6 75.2-75.2v-752c-0.8-42.4-34.4-76-76-76" fill="#409EFF" p-id="17978"></path></svg>