<svg width="24" height="24" viewBox="0 0 24 24" fill="none" xmlns="http://www.w3.org/2000/svg">
<path d="M4.5 4.34277C4.5 3.47983 5.19956 2.78027 6.0625 2.78027H19.1875C20.0504 2.78027 20.75 3.47983 20.75 4.34277V19.6553C20.75 20.5182 20.0504 21.2178 19.1875 21.2178H6.0625C5.19956 21.2178 4.5 20.5182 4.5 19.6553V4.34277Z" fill="white"/>
<path fill-rule="evenodd" clip-rule="evenodd" d="M19.1875 3.71777H6.0625C5.71732 3.71777 5.4375 3.9976 5.4375 4.34277V19.6553C5.4375 20.0005 5.71732 20.2803 6.0625 20.2803H19.1875C19.5327 20.2803 19.8125 20.0005 19.8125 19.6553V4.34277C19.8125 3.9976 19.5327 3.71777 19.1875 3.71777ZM6.0625 2.78027C5.19956 2.78027 4.5 3.47983 4.5 4.34277V19.6553C4.5 20.5182 5.19956 21.2178 6.0625 21.2178H19.1875C20.0504 21.2178 20.75 20.5182 20.75 19.6553V4.34277C20.75 3.47983 20.0504 2.78027 19.1875 2.78027H6.0625Z" fill="#FA762D" fill-opacity="0.64"/>
<path fill-rule="evenodd" clip-rule="evenodd" d="M18.8676 11.6862C18.8676 9.80518 17.3485 8.28027 15.4746 8.28027V11.6862H18.8676ZM14.8039 12.3743V8.96833C12.93 8.96833 11.4109 10.4932 11.4109 12.3743C11.4109 14.2554 12.93 15.7803 14.8039 15.7803C16.6778 15.7803 18.1968 14.2554 18.1968 12.3743H14.8039Z" fill="#FA762D" fill-opacity="0.3"/>
<path fill-rule="evenodd" clip-rule="evenodd" d="M3.25 6.53027C3.25 6.1851 3.52982 5.90527 3.875 5.90527H13.875C14.2202 5.90527 14.5 6.1851 14.5 6.53027V17.4678C14.5 17.813 14.2202 18.0928 13.875 18.0928H3.875C3.52982 18.0928 3.25 17.813 3.25 17.4678V6.53027Z" fill="url(#paint0_linear_3765_206364)"/>
<g filter="url(#filter0_d_3765_206364)">
<path fill-rule="evenodd" clip-rule="evenodd" d="M5.75 8.31152V15.6787H7.52559V13.484H8.82364C9.45001 13.484 9.99471 13.3841 10.4552 13.181L10.4562 13.1805C10.9165 12.9706 11.2751 12.6711 11.5283 12.2811C11.782 11.8902 11.9071 11.4295 11.9071 10.9027C11.9071 10.3696 11.7821 9.90552 11.5283 9.51448C11.275 9.12437 10.9163 8.82797 10.4557 8.62466C9.99503 8.41477 9.45013 8.31152 8.82364 8.31152H5.75ZM7.43533 15.2941H5.84033V8.40178H5.84026V15.2941H7.43533V15.2941ZM8.82364 13.3938H7.43541V13.3938H8.82372C9.1045 13.3938 9.36762 13.3734 9.61306 13.3326C9.3676 13.3734 9.10446 13.3938 8.82364 13.3938ZM7.43541 12.0941H8.73503C9.22733 12.0941 9.59492 11.9891 9.83779 11.779C10.0807 11.569 10.2021 11.2769 10.2021 10.9027C10.2021 10.522 10.0807 10.2266 9.83779 10.0165C9.59492 9.8065 9.22733 9.70147 8.73503 9.70147H7.43541V9.70146H8.7351C9.22741 9.70146 9.595 9.80648 9.83787 10.0165C10.0807 10.2266 10.2022 10.522 10.2022 10.9027C10.2022 11.2768 10.0807 11.5689 9.83787 11.779C9.595 11.989 9.22741 12.0941 8.7351 12.0941H7.43541V9.70147M8.73503 12.0038H7.52559V9.79173H8.73503C9.21674 9.79173 9.55908 9.89482 9.77875 10.0848C9.99808 10.2745 10.1118 10.5428 10.1118 10.9027C10.1118 11.2554 9.99845 11.5207 9.77875 11.7107C9.55908 11.9007 9.21674 12.0038 8.73503 12.0038Z" fill="white"/>
</g>
<defs>
<filter id="filter0_d_3765_206364" x="5.47103" y="7.75357" width="7.83098" height="9.04103" filterUnits="userSpaceOnUse" color-interpolation-filters="sRGB">
<feFlood flood-opacity="0" result="BackgroundImageFix"/>
<feColorMatrix in="SourceAlpha" type="matrix" values="0 0 0 0 0 0 0 0 0 0 0 0 0 0 0 0 0 0 127 0" result="hardAlpha"/>
<feOffset dx="0.557949" dy="0.278974"/>
<feGaussianBlur stdDeviation="0.418462"/>
<feColorMatrix type="matrix" values="0 0 0 0 0 0 0 0 0 0 0 0 0 0 0 0 0 0 0.08 0"/>
<feBlend mode="normal" in2="BackgroundImageFix" result="effect1_dropShadow_3765_206364"/>
<feBlend mode="normal" in="SourceGraphic" in2="effect1_dropShadow_3765_206364" result="shape"/>
</filter>
<linearGradient id="paint0_linear_3765_206364" x1="4.17156" y1="2.6165" x2="-2.71888" y2="15.4726" gradientUnits="userSpaceOnUse">
<stop stop-color="#FF8246"/>
<stop offset="1" stop-color="#FF5E2F"/>
</linearGradient>
</defs>
</svg>
