<svg width="24" height="24" viewBox="0 0 24 24" fill="none" xmlns="http://www.w3.org/2000/svg">
<path d="M4.5 4.34277C4.5 3.47983 5.19956 2.78027 6.0625 2.78027H19.1875C20.0504 2.78027 20.75 3.47983 20.75 4.34277V19.6553C20.75 20.5182 20.0504 21.2178 19.1875 21.2178H6.0625C5.19956 21.2178 4.5 20.5182 4.5 19.6553V4.34277Z" fill="white"/>
<path fill-rule="evenodd" clip-rule="evenodd" d="M19.1875 3.71777H6.0625C5.71732 3.71777 5.4375 3.9976 5.4375 4.34277V19.6553C5.4375 20.0005 5.71732 20.2803 6.0625 20.2803H19.1875C19.5327 20.2803 19.8125 20.0005 19.8125 19.6553V4.34277C19.8125 3.9976 19.5327 3.71777 19.1875 3.71777ZM6.0625 2.78027C5.19956 2.78027 4.5 3.47983 4.5 4.34277V19.6553C4.5 20.5182 5.19956 21.2178 6.0625 21.2178H19.1875C20.0504 21.2178 20.75 20.5182 20.75 19.6553V4.34277C20.75 3.47983 20.0504 2.78027 19.1875 2.78027H6.0625Z" fill="#00AA5B" fill-opacity="0.64"/>
<path fill-rule="evenodd" clip-rule="evenodd" d="M18.4062 8.24902H15.9062V9.40287H18.4062V8.24902ZM18.4062 10.5567H15.9062V11.7106H18.4062V10.5567ZM15.9062 12.8644H18.4062V14.0183H15.9062V12.8644ZM18.4062 15.1721H15.9062V16.3259H18.4062V15.1721Z" fill="#00AA5B" fill-opacity="0.3"/>
<path fill-rule="evenodd" clip-rule="evenodd" d="M15.2812 8.24902H13.0938V9.40287H15.2812V8.24902ZM15.2812 10.5567H13.0938V11.7106H15.2812V10.5567ZM13.0938 12.8644H15.2812V14.0183H13.0938V12.8644ZM15.2812 15.1721H13.0938V16.3259H15.2812V15.1721Z" fill="#00AA5B" fill-opacity="0.3"/>
<path fill-rule="evenodd" clip-rule="evenodd" d="M3.25 6.53027C3.25 6.1851 3.52982 5.90527 3.875 5.90527H13.875C14.2202 5.90527 14.5 6.1851 14.5 6.53027V17.4678C14.5 17.813 14.2202 18.0928 13.875 18.0928H3.875C3.52982 18.0928 3.25 17.813 3.25 17.4678V6.53027Z" fill="url(#paint0_linear_3765_206363)"/>
<g filter="url(#filter0_d_3765_206363)">
<path d="M5.4375 15.4943L8.26322 11.5697L8.25398 12.8718L5.53908 9.03027H7.59834L9.33441 11.5328L8.45714 11.542L10.1655 9.03027H12.1417L9.42675 12.7979V11.5051L12.2894 15.4943H10.184L8.4202 12.8625H9.26053L7.52447 15.4943H5.4375Z" fill="white"/>
</g>
<defs>
<filter id="filter0_d_3765_206363" x="5.15853" y="8.47232" width="8.52576" height="8.13796" filterUnits="userSpaceOnUse" color-interpolation-filters="sRGB">
<feFlood flood-opacity="0" result="BackgroundImageFix"/>
<feColorMatrix in="SourceAlpha" type="matrix" values="0 0 0 0 0 0 0 0 0 0 0 0 0 0 0 0 0 0 127 0" result="hardAlpha"/>
<feOffset dx="0.557949" dy="0.278974"/>
<feGaussianBlur stdDeviation="0.418462"/>
<feColorMatrix type="matrix" values="0 0 0 0 0 0 0 0 0 0 0 0 0 0 0 0 0 0 0.08 0"/>
<feBlend mode="normal" in2="BackgroundImageFix" result="effect1_dropShadow_3765_206363"/>
<feBlend mode="normal" in="SourceGraphic" in2="effect1_dropShadow_3765_206363" result="shape"/>
</filter>
<linearGradient id="paint0_linear_3765_206363" x1="6.71703" y1="1.36251" x2="-2.52735" y2="12.4316" gradientUnits="userSpaceOnUse">
<stop stop-color="#01D184"/>
<stop offset="1" stop-color="#00AA5B"/>
</linearGradient>
</defs>
</svg>
