<svg width="24" height="24" viewBox="0 0 24 24" fill="none" xmlns="http://www.w3.org/2000/svg">
<path d="M3.25 4.34277C3.25 3.47983 3.94956 2.78027 4.8125 2.78027H19.1875C20.0504 2.78027 20.75 3.47983 20.75 4.34277V19.6553C20.75 20.5182 20.0504 21.2178 19.1875 21.2178H4.8125C3.94956 21.2178 3.25 20.5182 3.25 19.6553V4.34277Z" fill="white"/>
<path fill-rule="evenodd" clip-rule="evenodd" d="M19.1875 3.71777H4.8125C4.46732 3.71777 4.1875 3.9976 4.1875 4.34277V19.6553C4.1875 20.0005 4.46732 20.2803 4.8125 20.2803H19.1875C19.5327 20.2803 19.8125 20.0005 19.8125 19.6553V4.34277C19.8125 3.9976 19.5327 3.71777 19.1875 3.71777ZM4.8125 2.78027C3.94956 2.78027 3.25 3.47983 3.25 4.34277V19.6553C3.25 20.5182 3.94956 21.2178 4.8125 21.2178H19.1875C20.0504 21.2178 20.75 20.5182 20.75 19.6553V4.34277C20.75 3.47983 20.0504 2.78027 19.1875 2.78027H4.8125Z" fill="#FF8246" fill-opacity="0.64"/>
<path fill-rule="evenodd" clip-rule="evenodd" d="M16.5273 9.22257C17.2674 9.22257 17.8674 8.61988 17.8674 7.87642C17.8674 7.13296 17.2674 6.53027 16.5273 6.53027C15.7872 6.53027 15.1873 7.13296 15.1873 7.87642C15.1873 8.61988 15.7872 9.22257 16.5273 9.22257ZM9.05529 6.69853H9.31997H10.9984H11.2631L14.1777 17.4677H12.2346L11.5515 14.9438H8.76683L8.08373 17.4677H6.14062L9.05529 6.69853ZM11.005 12.9246L10.1592 9.79929L9.31333 12.9246H11.005ZM15.5229 9.89569H17.5331V17.4678H15.5229V9.89569Z" fill="#FF8246"/>
</svg>
