<?xml version="1.0" standalone="no"?><!DOCTYPE svg PUBLIC "-//W3C//DTD SVG 1.1//EN" "http://www.w3.org/Graphics/SVG/1.1/DTD/svg11.dtd"><svg t="1727404455944" class="icon" viewBox="0 0 1024 1024" version="1.1" xmlns="http://www.w3.org/2000/svg" p-id="235864" width="18" height="18" xmlns:xlink="http://www.w3.org/1999/xlink"><path d="M128 128.64v284.288c0 0.64 0 0.64 0.64 0.64h284.288c0.64 0 0.64 0 0.64-0.64V128.64c0-0.64 0-0.64-0.64-0.64H128.64C128 128 128 128 128 128.64z m-64 0C64 92.928 92.416 64 128.64 64h284.288c35.712 0 64.64 28.416 64.64 64.64v284.288c0 35.712-28.48 64.64-64.64 64.64H128.64c-35.712 0-64.64-28.48-64.64-64.64V128.64z m64 482.432v284.288c0 0.64 0 0.64 0.64 0.64h284.288c0.64 0 0.64 0 0.64-0.64V611.072c0-0.64 0-0.64-0.64-0.64H128.64c-0.64 0-0.64 0-0.64 0.64z m-64 0c0-35.712 28.416-64.64 64.64-64.64h284.288c35.712 0 64.64 28.48 64.64 64.64v284.288c0 35.712-28.48 64.64-64.64 64.64H128.64C92.928 960 64 931.584 64 895.36V611.072zM610.432 128.64v284.288c0 0.64 0 0.64 0.64 0.64h284.288c0.64 0 0.64 0 0.64-0.64V128.64C896 128 896 128 895.36 128H611.072c-0.64 0-0.64 0-0.64 0.64z m-64 0c0-35.712 28.48-64.64 64.64-64.64h284.288c35.712 0 64.64 28.416 64.64 64.64v284.288c0 35.712-28.416 64.64-64.64 64.64H611.072c-35.712 0-64.64-28.48-64.64-64.64V128.64z m64 482.432v284.288c0 0.64 0 0.64 0.64 0.64h284.288c0.64 0 0.64 0 0.64-0.64V611.072c0-0.64 0-0.64-0.64-0.64H611.072c-0.64 0-0.64 0-0.64 0.64z m-64 0c0-35.712 28.48-64.64 64.64-64.64h284.288c35.712 0 64.64 28.48 64.64 64.64v284.288c0 35.712-28.416 64.64-64.64 64.64H611.072c-35.712 0-64.64-28.416-64.64-64.64V611.072z" fill="#000000" p-id="235865"></path></svg>