<?xml version="1.0" standalone="no"?><!DOCTYPE svg PUBLIC "-//W3C//DTD SVG 1.1//EN" "http://www.w3.org/Graphics/SVG/1.1/DTD/svg11.dtd"><svg t="1735105397347" class="icon" viewBox="0 0 1024 1024" version="1.1" xmlns="http://www.w3.org/2000/svg" p-id="27714" width="24" height="24" xmlns:xlink="http://www.w3.org/1999/xlink"><path d="M729.710684 90.341522l127.191409 127.191409a307.07728 307.07728 0 0 1 89.973643 217.165053v435.74266a153.53864 153.53864 0 0 1-153.53864 153.538641H230.341611a153.53864 153.53864 0 0 1-153.538641-153.538641V153.967934a153.53864 153.53864 0 0 1 153.538641-153.53864h282.265436a307.07728 307.07728 0 0 1 217.103637 89.912228z" fill="#7298D0" p-id="27715"></path><path d="M563.029136 51.588369v281.467035c0 28.25111 22.907965 51.22049 51.159075 51.22049h281.467035a51.159075 51.159075 0 0 0 36.235119-87.394194L650.361915 15.414665a51.159075 51.159075 0 0 0-87.332779 36.173704z" fill="#BCDAF7" p-id="27716"></path><path d="M540.305417 708.795164c0-14.002724 2.825111-26.162984 8.413918-37.831921 5.036067-10.440628 12.283091-20.328516 22.355226-29.049511 26.777139-24.443352 42.990819-40.165708 48.026886-45.938761 13.388569-18.608883 20.697009-42.499496 20.697009-71.549006 0-35.498134-11.177613-63.380751-33.532839-83.770682-22.355226-20.881255-51.957476-30.830559-88.315426-30.830559-41.332602 0-73.698547 12.283091-97.773406 36.665027-24.566182 24.443352-36.296535 58.160437-36.296534 101.212672h63.687828c0-24.443352 4.483328-43.604974 14.002724-56.993543 10.563458-16.336511 27.882617-23.890612 52.510215-23.890613 18.977376 0 34.085578 5.281729 44.649036 16.336512 10.072135 11.054782 15.660941 26.162984 15.660941 45.324606 0 14.555463-5.036067 28.496772-15.046786 41.271187l-6.755701 8.168255c-36.235119 33.778501-58.099021 58.160437-65.346045 73.882794-7.799763 15.660941-11.177613 34.883979-11.177613 56.993543h64.240567z m-30.216404 110.486406a37.647675 37.647675 0 0 0 38.630322-38.691738 38.077583 38.077583 0 0 0-10.931951-27.391293 38.814568 38.814568 0 0 0-27.698371-10.68629 37.647675 37.647675 0 0 0-27.268463 10.68629 36.173704 36.173704 0 0 0-10.870535 27.452709c0 11.177613 3.439266 20.328516 10.870535 27.452709a38.077583 38.077583 0 0 0 27.268463 11.177613z" fill="#FFFFFF" p-id="27717"></path></svg>