<?xml version="1.0" standalone="no"?><!DOCTYPE svg PUBLIC "-//W3C//DTD SVG 1.1//EN" "http://www.w3.org/Graphics/SVG/1.1/DTD/svg11.dtd"><svg t="1737506554663" class="icon" viewBox="0 0 1024 1024" version="1.1" xmlns="http://www.w3.org/2000/svg" p-id="954" width="24" height="24" xmlns:xlink="http://www.w3.org/1999/xlink"><path d="M484.65408 126.93504L259.456 315.65312H123.61728c-25.51808 0-46.49472 20.97152-46.49472 46.50496v307.25632c0 25.51808 20.9664 46.49472 46.49472 46.49472h135.83872l20.06528-57.44128H133.64736V373.10976h145.87392l223.37536-187.83232v661.90848l-223.37536-188.7232-20.05504 57.44128 224.2816 189.62944c8.20736 7.296 19.1488 10.94656 30.08512 10.94656 7.296 0 13.67552-1.82272 20.05504-4.56192a46.08512 46.08512 0 0 0 27.36128-41.9328V162.47808c-0.9216-18.23744-10.94656-34.64192-27.36128-41.9328a48.02048 48.02048 0 0 0-49.23392 6.38464v0.00512z m187.8272 159.54432l-36.46976 43.76064c55.61344 46.50496 87.5264 115.7888 87.5264 188.72832 0 70.20544-30.08 136.76032-82.05312 184.1664l38.29248 42.8544c64.73216-57.44128 101.20192-140.40576 101.20192-227.0208 0-89.344-39.19872-174.14144-108.4928-232.47872v-0.01024z m96.64-86.60992l-29.17376 49.23392c94.82752 55.61344 154.08128 157.72672 154.08128 267.136 0 109.39904-58.34752 211.51744-152.25344 267.13088l29.17376 49.2288c111.232-65.6384 179.60448-186.9056 179.60448-316.35968-0.00512-129.46432-69.28896-250.72128-181.43232-316.36992z" p-id="955" fill="#999999"></path></svg>