<svg width="24" height="24" viewBox="0 0 24 24" fill="none" xmlns="http://www.w3.org/2000/svg">
<path d="M3.25 4.34277C3.25 3.47983 3.94956 2.78027 4.8125 2.78027H19.1875C20.0504 2.78027 20.75 3.47983 20.75 4.34277V19.6553C20.75 20.5182 20.0504 21.2178 19.1875 21.2178H4.8125C3.94956 21.2178 3.25 20.5182 3.25 19.6553V4.34277Z" fill="white"/>
<path fill-rule="evenodd" clip-rule="evenodd" d="M19.1875 3.71777H4.8125C4.46732 3.71777 4.1875 3.9976 4.1875 4.34277V19.6553C4.1875 20.0005 4.46732 20.2803 4.8125 20.2803H19.1875C19.5327 20.2803 19.8125 20.0005 19.8125 19.6553V4.34277C19.8125 3.9976 19.5327 3.71777 19.1875 3.71777ZM4.8125 2.78027C3.94956 2.78027 3.25 3.47983 3.25 4.34277V19.6553C3.25 20.5182 3.94956 21.2178 4.8125 21.2178H19.1875C20.0504 21.2178 20.75 20.5182 20.75 19.6553V4.34277C20.75 3.47983 20.0504 2.78027 19.1875 2.78027H4.8125Z" fill="#81868F" fill-opacity="0.64"/>
<path fill-rule="evenodd" clip-rule="evenodd" d="M9.33629 8.09277L5.84909 11.406C5.50864 11.7295 5.50864 12.254 5.84909 12.5774L9.33629 15.8907L10.5692 14.7193L7.69846 11.9917L10.5692 9.26418L9.33629 8.09277ZM14.6634 8.09277L18.1506 11.406C18.4911 11.7295 18.4911 12.254 18.1506 12.5774L14.6634 15.8907L13.4305 14.7193L16.3013 11.9917L13.4305 9.26418L14.6634 8.09277Z" fill="#81868F"/>
</svg>
