<svg width="24" height="24" viewBox="0 0 24 24" fill="none" xmlns="http://www.w3.org/2000/svg">
<path d="M4.50046 4.34277C4.50046 3.47983 5.20001 2.78027 6.06296 2.78027H19.188C20.0509 2.78027 20.7505 3.47983 20.7505 4.34277V19.6553C20.7505 20.5182 20.0509 21.2178 19.188 21.2178H6.06296C5.20001 21.2178 4.50046 20.5182 4.50046 19.6553V4.34277Z" fill="white"/>
<path fill-rule="evenodd" clip-rule="evenodd" d="M19.188 3.71777H6.06296C5.71778 3.71777 5.43796 3.9976 5.43796 4.34277V19.6553C5.43796 20.0005 5.71778 20.2803 6.06296 20.2803H19.188C19.5331 20.2803 19.813 20.0005 19.813 19.6553V4.34277C19.813 3.9976 19.5331 3.71777 19.188 3.71777ZM6.06296 2.78027C5.20001 2.78027 4.50046 3.47983 4.50046 4.34277V19.6553C4.50046 20.5182 5.20001 21.2178 6.06296 21.2178H19.188C20.0509 21.2178 20.7505 20.5182 20.7505 19.6553V4.34277C20.7505 3.47983 20.0509 2.78027 19.188 2.78027H6.06296Z" fill="#FF6A6A" fill-opacity="0.64"/>
<path fill-rule="evenodd" clip-rule="evenodd" d="M18.2505 7.93286H13.8755V10.4329H18.2505V7.93286ZM18.2505 11.6828H13.8755V12.4641H18.2505V11.6828ZM13.8755 13.7141H18.2505V14.4953H13.8755V13.7141ZM18.2505 15.7453H13.8755V16.5266H18.2505V15.7453Z" fill="#FD6161" fill-opacity="0.3"/>
<path fill-rule="evenodd" clip-rule="evenodd" d="M3.25046 6.53027C3.25046 6.1851 3.53028 5.90527 3.87546 5.90527H13.8755C14.2206 5.90527 14.5005 6.1851 14.5005 6.53027V17.4678C14.5005 17.813 14.2206 18.0928 13.8755 18.0928H3.87546C3.53028 18.0928 3.25046 17.813 3.25046 17.4678V6.53027Z" fill="url(#paint0_linear_3765_206365)" fill-opacity="0.96"/>
<g filter="url(#filter0_d_3765_206365)">
<path fill-rule="evenodd" clip-rule="evenodd" d="M9.11242 7.69141H8.30175C8.1238 7.69141 8.03889 7.84767 8.03588 7.9248C7.92067 10.8741 6.9984 12.8615 4.88677 15.0708C4.82713 15.1332 4.75837 15.321 4.88147 15.4649C4.91791 15.5075 4.95883 15.555 5.0041 15.6076C5.11359 15.7347 5.24848 15.8914 5.40697 16.0792C5.52868 16.2234 5.71847 16.1696 5.79261 16.1196C7.85623 14.7288 10.4356 14.0966 12.3574 14.2579C12.4401 14.2648 12.61 14.2249 12.6505 14.0284C12.6775 13.8976 12.7009 13.7808 12.7219 13.6765C12.7544 13.5145 12.7809 13.3823 12.8054 13.2736C12.8492 13.0787 12.6923 12.92 12.6059 12.8858C11.0131 12.255 9.53498 10.0363 9.39324 7.96713C9.38692 7.87487 9.34102 7.69141 9.11242 7.69141ZM7.62546 13.7478C8.16042 12.896 8.56703 12.0191 8.85717 11.0773L8.91756 10.8745L9.00411 11.0361C9.41548 11.7859 9.93065 12.4695 10.5128 13.0302C9.64413 13.1446 8.74135 13.3577 7.84845 13.6682L7.62546 13.7478Z" fill="white"/>
</g>
<defs>
<filter id="filter0_d_3765_206365" x="4.53398" y="7.13346" width="9.67385" height="10.1548" filterUnits="userSpaceOnUse" color-interpolation-filters="sRGB">
<feFlood flood-opacity="0" result="BackgroundImageFix"/>
<feColorMatrix in="SourceAlpha" type="matrix" values="0 0 0 0 0 0 0 0 0 0 0 0 0 0 0 0 0 0 127 0" result="hardAlpha"/>
<feOffset dx="0.557949" dy="0.278974"/>
<feGaussianBlur stdDeviation="0.418462"/>
<feColorMatrix type="matrix" values="0 0 0 0 0 0 0 0 0 0 0 0 0 0 0 0 0 0 0.08 0"/>
<feBlend mode="normal" in2="BackgroundImageFix" result="effect1_dropShadow_3765_206365"/>
<feBlend mode="normal" in="SourceGraphic" in2="effect1_dropShadow_3765_206365" result="shape"/>
</filter>
<linearGradient id="paint0_linear_3765_206365" x1="6.57908" y1="1.4884" x2="-3.1884" y2="12.7659" gradientUnits="userSpaceOnUse">
<stop stop-color="#FF7272"/>
<stop offset="1" stop-color="#FF4747"/>
</linearGradient>
</defs>
</svg>
