<?xml version="1.0" standalone="no"?><!DOCTYPE svg PUBLIC "-//W3C//DTD SVG 1.1//EN" "http://www.w3.org/Graphics/SVG/1.1/DTD/svg11.dtd"><svg t="1730511690199" class="icon" viewBox="0 0 1056 1024" version="1.1" xmlns="http://www.w3.org/2000/svg" p-id="7126" width="24.75" height="24" xmlns:xlink="http://www.w3.org/1999/xlink"><path d="M912.633 309.917v253.056l-1.058 1.028c48.214 39.958 76.978 89.2 86.262 147.727 9.284 58.526-2.938 114.291-36.667 167.323-35.815 51.652-82.472 84.353-139.97 98.132-57.498 13.78-114.144 6.17-169.909-22.74H204.028c-32.349-0.676-59.203-11.518-80.562-32.525-21.33-21.007-32.701-47.332-34.082-79.034V183.903c1.38-31.644 12.751-57.998 34.082-79.005 21.36-21.008 48.184-31.878 80.562-32.554h414.21V191.13c0.675 33.73 11.546 61.788 32.524 84.176 21.007 22.388 47.362 33.906 79.034 34.61h182.837zM765.494 924.033a172.641 172.641 0 0 0 87.79-23.21 172.054 172.054 0 0 0 64.05-64.58c15.836-27.559 23.74-56.822 23.74-87.79 0-30.996-7.933-60.435-23.74-88.318a170.996 170.996 0 0 0-64.05-65.107 172.641 172.641 0 0 0-87.79-23.211c-50.27 1.38-91.962 18.598-124.986 51.651-33.053 33.054-50.27 74.715-51.651 124.986 1.38 49.565 18.598 90.875 51.651 123.928s74.716 50.27 124.986 51.651z m30.203-183.982v100.306a29.38 29.38 0 0 1-58.761 0V740.05L704 772.987a29.38 29.38 0 1 1-41.544-41.545l83.088-83.088a29.38 29.38 0 0 1 41.545 0l83.118 83.088a29.38 29.38 0 0 1-41.574 41.545l-32.906-32.936z m72.512-487.985H729.796c-14.455-0.676-26.677-6.699-36.667-18.07-9.99-11.37-15.337-25.649-16.012-42.866V72.344h12.398L868.21 252.066zM266.021 277.92a31.996 31.996 0 0 0-20.655 9.284 28.03 28.03 0 0 0-8.285 20.655c0 8.227 2.762 15.131 8.285 20.655a28.03 28.03 0 0 0 20.655 8.256H559.36c8.96 0 16.159-2.762 21.683-8.256a28.03 28.03 0 0 0 8.285-20.655 28.03 28.03 0 0 0-8.285-20.684c-5.495-5.494-12.722-8.58-21.683-9.284H266.02z m0 147.668a28.03 28.03 0 0 0-20.655 8.285 28.03 28.03 0 0 0-8.285 20.655c0 8.256 2.762 15.13 8.285 20.654 5.495 5.495 12.37 8.609 20.655 9.285H559.36c8.96-0.676 16.159-3.79 21.683-9.285a28.03 28.03 0 0 0 8.285-20.654 28.03 28.03 0 0 0-8.285-20.655c-5.495-5.523-12.722-8.285-21.683-8.285H266.02z m0 146.698a28.03 28.03 0 0 0-20.655 8.226 28.03 28.03 0 0 0-8.285 20.685c0 8.256 2.762 15.16 8.285 20.654 5.495 5.524 12.37 8.609 20.655 9.314H442.63c8.285-0.705 15.16-3.82 20.684-9.314a28.03 28.03 0 0 0 8.226-20.654 28.03 28.03 0 0 0-8.226-20.655 28.03 28.03 0 0 0-20.684-8.256H266.02z" p-id="7127" fill="#409eff"></path></svg>