<?xml version="1.0" standalone="no"?><!DOCTYPE svg PUBLIC "-//W3C//DTD SVG 1.1//EN" "http://www.w3.org/Graphics/SVG/1.1/DTD/svg11.dtd"><svg t="1737509154923" class="icon" viewBox="0 0 1024 1024" version="1.1" xmlns="http://www.w3.org/2000/svg" p-id="54575" width="24" height="24" xmlns:xlink="http://www.w3.org/1999/xlink"><path d="M853.333 234.667A21.333 21.333 0 0 1 874.667 256v469.333a21.333 21.333 0 0 1-21.334 21.334H516.267a76.8 76.8 0 0 0-46.08 15.36l-64.854 48.64a66.133 66.133 0 0 0-66.133-64H170.667a21.333 21.333 0 0 1-21.334-21.334V256a21.333 21.333 0 0 1 21.334-21.333h682.666z m-344.746 578.56a12.8 12.8 0 0 1 7.68-2.56h337.066a85.333 85.333 0 0 0 85.334-85.334V256a85.333 85.333 0 0 0-85.334-85.333H170.667A85.333 85.333 0 0 0 85.333 256v469.333a85.333 85.333 0 0 0 85.334 85.334H339.2a2.133 2.133 0 0 1 2.133 2.133v100.267a12.8 12.8 0 0 0 20.48 10.24l146.774-110.08z" fill="#999999" p-id="54576"></path><path d="M746.667 490.667a64 64 0 1 1-128 0 64 64 0 0 1 128 0z m-341.334 0a64 64 0 1 1-128 0 64 64 0 0 1 128 0z m170.667 0a64 64 0 1 1-128 0 64 64 0 0 1 128 0z" fill="#999999" p-id="54577"></path></svg>