<?xml version="1.0" standalone="no"?><!DOCTYPE svg PUBLIC "-//W3C//DTD SVG 1.1//EN" "http://www.w3.org/Graphics/SVG/1.1/DTD/svg11.dtd"><svg t="1735104905291" class="icon" viewBox="0 0 1024 1024" version="1.1" xmlns="http://www.w3.org/2000/svg" p-id="14907" width="24" height="24" xmlns:xlink="http://www.w3.org/1999/xlink"><path d="M81.2032 73.1648m188.8768 0l481.9456 0q188.8768 0 188.8768 188.8768l0 481.9456q0 188.8768-188.8768 188.8768l-481.9456 0q-188.8768 0-188.8768-188.8768l0-481.9456q0-188.8768 188.8768-188.8768Z" fill="#CCDAFF" p-id="14908"></path><path d="M242.0736 766.0544h537.9072a39.5776 39.5776 0 0 0 39.5776-39.5776V357.5296a39.6288 39.6288 0 0 0-69.376-26.112l-211.7632 241.5616a39.6288 39.6288 0 0 1-52.9408 6.0416l-90.0608-64.9216a39.6288 39.6288 0 0 0-55.2448 8.96L209.92 703.2832a39.5776 39.5776 0 0 0 32.1536 62.7712z" fill="#7A7AF9" p-id="14909"></path><path d="M377.3952 309.6064m-90.2144 0a90.2144 90.2144 0 1 0 180.4288 0 90.2144 90.2144 0 1 0-180.4288 0Z" fill="#7A7AF9" p-id="14910"></path></svg>