<?xml version="1.0" standalone="no"?><!DOCTYPE svg PUBLIC "-//W3C//DTD SVG 1.1//EN" "http://www.w3.org/Graphics/SVG/1.1/DTD/svg11.dtd"><svg t="1729422445057" class="icon" viewBox="0 0 1024 1024" version="1.1" xmlns="http://www.w3.org/2000/svg" p-id="1026" xmlns:xlink="http://www.w3.org/1999/xlink" width="24" height="24"><path d="M416 974.848H102.4a102.4 102.4 0 0 1-102.4-102.4V166.4A102.4 102.4 0 0 1 102.4 64h286.144a52.224 52.224 0 0 1 36.096 14.848l87.488 151.424h409.6a102.4 102.4 0 0 1 102.4 102.4v147.2h-73.024v-147.2a29.184 29.184 0 0 0-29.376-29.056H481.984l-21.248-21.312-81.152-144.96H102.592a29.184 29.184 0 0 0-29.376 29.056v706.112a29.184 29.184 0 0 0 29.376 29.056h313.6v73.216z" p-id="1027" fill="#409eff"></path><path d="M960.32 954.304a200.512 200.512 0 0 0-153.152-218.688 199.808 199.808 0 0 0-42.24-4.48 202.176 202.176 0 0 0-202.496 201.472c0 7.488 0.768 14.592 1.344 21.696a33.344 33.344 0 0 1-33.728 21.312 32.448 32.448 0 0 1-29.12-25.024 143.744 143.744 0 0 1-0.768-17.984 264.064 264.064 0 0 1 153.6-239.616 150.464 150.464 0 0 1 128.384-251.584 152.064 152.064 0 0 1 132.224 127.488 149.12 149.12 0 0 1-38.4 124.096l-2.24 1.792a263.552 263.552 0 0 1 150.4 237.824c0 6.016-0.384 11.968-0.64 17.984a32.832 32.832 0 0 1-29.632 25.024 32 32 0 0 1-4.48 0 33.6 33.6 0 0 1-29.056-21.312z m-217.6-453.056a92.096 92.096 0 0 0-20.864 171.2 93.056 93.056 0 0 0 43.136 10.816 92.288 92.288 0 1 0 0-184.512 100.288 100.288 0 0 0-22.272 2.496z" p-id="1028" fill="#409eff"></path></svg>