<?xml version="1.0" standalone="no"?><!DOCTYPE svg PUBLIC "-//W3C//DTD SVG 1.1//EN" "http://www.w3.org/Graphics/SVG/1.1/DTD/svg11.dtd"><svg t="1728883431781" class="icon" viewBox="0 0 1024 1024" version="1.1" xmlns="http://www.w3.org/2000/svg" p-id="1428" xmlns:xlink="http://www.w3.org/1999/xlink" width="24" height="24"><path d="M251.769263 0c-25.6 0-42.657684 17.057684-42.657684 42.657684v268.8H128.026947c-72.542316 0-128 59.742316-128 128V896c0 72.542316 55.457684 128 128 128h853.342316c25.6 0 42.657684-17.057684 42.657684-42.657684V42.657684c0-25.6-17.057684-42.657684-42.657684-42.657684z m42.657684 85.342316h644.284632v853.315368H285.884632c4.284632-12.8 8.542316-25.6 8.542315-42.657684V85.342316zM128.026947 396.8h76.8V896c0 25.6-17.057684 42.657684-42.657684 42.657684H128.026947c-25.6 0-42.657684-17.057684-42.657684-42.657684V439.457684c0-25.6 17.057684-42.657684 42.657684-42.657684z m524.8 285.857684c-25.6 0-42.657684 17.084632-42.657684 42.684632 0 25.6 17.057684 42.657684 38.4 42.657684h179.2c25.6 0 42.657684-17.057684 42.657684-42.657684s-17.057684-42.684632-42.657684-42.684632h-174.942316z m-243.2-196.257684c-25.6 0-42.657684 17.057684-42.657684 42.657684s17.057684 42.684632 42.657684 42.684632h418.142316c25.6 0 42.657684-17.084632 42.657684-42.684632 0-25.6-17.057684-42.657684-42.657684-42.657684H409.626947z m0-200.542316c-25.6 0-42.657684 17.084632-42.657684 42.684632 0 25.6 17.057684 42.657684 42.657684 42.657684h418.142316c25.6 0 42.657684-17.057684 42.657684-42.657684s-17.057684-42.684632-42.657684-42.684632H409.626947z" fill="#8a8a8a" p-id="1429"></path></svg>