<?xml version="1.0" standalone="no"?><!DOCTYPE svg PUBLIC "-//W3C//DTD SVG 1.1//EN" "http://www.w3.org/Graphics/SVG/1.1/DTD/svg11.dtd"><svg t="1729428435574" class="icon" viewBox="0 0 1024 1024" version="1.1" xmlns="http://www.w3.org/2000/svg" p-id="4206" xmlns:xlink="http://www.w3.org/1999/xlink" width="24" height="24"><path d="M1024 645.248v330.752a48 48 0 0 1-48 48H48a48 48 0 0 1-48-48v-330.752a48 48 0 0 1 96 0V928h832v-282.752a48 48 0 0 1 96 0zM246.912 381.76L464.768 163.84v593.472a48 48 0 0 0 96 0V163.904l217.856 217.92a48 48 0 1 0 67.904-67.904L546.752 14.08a47.936 47.936 0 0 0-67.904 0L179.072 313.856a48 48 0 0 0 67.84 67.904z" fill="#ffffff" p-id="4207"></path></svg>